<svg width="400" height="600" viewBox="0 0 400 600" xmlns="http://www.w3.org/2000/svg">
    <g fill="none" fill-rule="evenodd">
        <path d="M176.5 163c30.652 0 55.5 24.848 55.5 55.5v325c0 30.652-24.848 55.5-55.5 55.5S121 574.152 121 543.5v-325c0-30.652 24.848-55.5 55.5-55.5z" fill="#1E318E"/>
        <path d="M231.007-.477v302.34c0 29.547 23.953 53.5 53.5 53.5s53.5-23.953 53.5-53.5V-.477c0-29.547-23.953-53.5-53.5-53.5s-53.5 23.953-53.5 53.5z" fill="#192B83"/>
        <path d="M338.007 379.595c0-29.547 23.953-53.5 53.5-53.5s53.5 23.953 53.5 53.5v200.921l-.007.775v76.072l-26.87-23.34h-25.127l.001-.027c-.497.014-.996.02-1.497.02-29.547 0-53.5-23.952-53.5-53.5v-200.92z" fill="#1C2E89"/>
        <path d="m445.5-77.5-26.871 28.55h-18.93A53.95 53.95 0 0 0 392-49.5c-29.547 0-53.5 23.953-53.5 53.5v269c0 29.547 23.953 53.5 53.5 53.5s53.5-23.953 53.5-53.5V-77.5z" fill="#112278"/>
        <path d="M122 385c.414 0 .827.002 1.24.007 60.456.664 109.26 49.88 109.26 110.493l-.012-1.5h.012v184h-110v-72.003l-.5.003z" fill="#223698"/>
        <path d="M231.007 319.595c0-29.547 23.953-53.5 53.5-53.5s53.5 23.953 53.5 53.5v200.921l-.007.775v76.072l-26.87-23.34h-25.127l.001-.027c-.497.014-.996.02-1.497.02-29.547 0-53.5-23.952-53.5-53.5v-200.92z" fill="#223698"/>
        <path d="M121.5 385c-.414 0-.827.002-1.24.007C59.805 385.67 11 434.887 11 495.5l.012-1.5H11v184h110v-72.003l.5.003z" fill="#1C2F8C"/>
    </g>
</svg>
