<?xml version="1.0" encoding="UTF-8"?>
<svg width="400px" height="600px" viewBox="0 0 400 600" version="1.1" xmlns="http://www.w3.org/2000/svg" xmlns:xlink="http://www.w3.org/1999/xlink">
    <title>좌</title>
    <g id="Page-1" stroke="none" stroke-width="1" fill="none" fill-rule="evenodd">
        <g id="좌" transform="translate(173.000000, 278.000000) scale(-1, 1) translate(-173.000000, -278.000000) translate(-54.000000, -122.000000)">
            <path d="M176.5,285 C207.151804,285 232,309.848196 232,340.5 L232,665.5 C232,696.151804 207.151804,721 176.5,721 C145.848196,721 121,696.151804 121,665.5 L121,340.5 C121,309.848196 145.848196,285 176.5,285 Z" id="Rectangle-Copy-8" fill="#1E318E"></path>
            <path d="M133.336988,219.192934 L435.676942,219.192934 C465.224176,219.192934 489.176942,243.1457 489.176942,272.692934 C489.176942,302.240168 465.224176,326.192934 435.676942,326.192934 L133.336988,326.192934 C103.789754,326.192934 79.8369883,302.240168 79.8369883,272.692934 C79.8369883,243.1457 103.789754,219.192934 133.336988,219.192934 Z" id="Combined-Shape-Copy" fill="#192B83" transform="translate(284.506965, 272.692934) scale(1, -1) rotate(-90.000000) translate(-284.506965, -272.692934) "></path>
            <path d="M503.640718,560.229157 C533.187952,560.229157 557.140718,584.181923 557.140718,613.729157 C557.140718,643.276392 533.187952,667.229157 503.640718,667.229157 L302.719655,667.229157 L301.945212,667.222157 L225.873212,667.222192 L249.213523,640.352713 L249.213523,615.225577 L249.240203,615.226428 C249.226534,614.729004 249.219655,614.229884 249.219655,613.729157 C249.219655,584.181923 273.172421,560.229157 302.719655,560.229157 L503.640718,560.229157 Z" id="Combined-Shape-Copy-2" fill="#1C2E89" transform="translate(391.506965, 613.729157) rotate(-90.000000) translate(-391.506965, -613.729157) "></path>
            <path d="M190,300 L218.550733,273.128772 L218.549814,254.198717 C218.18751,251.68475 218,249.114273 218,246.5 C218,216.952766 241.952766,193 271.5,193 L540.5,193 C570.047234,193 594,216.952766 594,246.5 C594,276.047234 570.047234,300 540.5,300 L190,300 Z" id="Combined-Shape-Copy-4" fill="#112278" transform="translate(392.000000, 246.500000) scale(1, -1) rotate(-90.000000) translate(-392.000000, -246.500000) "></path>
            <path d="M122,507 C122.413595,507 122.826659,507.002272 123.23918,507.006805 C183.695762,507.6711 232.5,556.88613 232.5,617.5 L232.488,616 L232.5,616 L232.5,800 L122.5,800 L122.5,727.997 L122,728 Z" id="Combined-Shape" fill="#223698"></path>
            <path d="M396.640718,500.229157 C426.187952,500.229157 450.140718,524.181923 450.140718,553.729157 C450.140718,583.276392 426.187952,607.229157 396.640718,607.229157 L195.719655,607.229157 L194.945212,607.222157 L118.873212,607.222192 L142.213523,580.352713 L142.213523,555.225577 L142.240203,555.226428 C142.226534,554.729004 142.219655,554.229884 142.219655,553.729157 C142.219655,524.181923 166.172421,500.229157 195.719655,500.229157 L396.640718,500.229157 Z" id="Combined-Shape" fill="#223698" transform="translate(284.506965, 553.729157) rotate(-90.000000) translate(-284.506965, -553.729157) "></path>
            <path d="M11,507 C11.4135948,507 11.8266589,507.002272 12.2391804,507.006805 C72.6957622,507.6711 121.5,556.88613 121.5,617.5 L121.488,616 L121.5,616 L121.5,800 L11.5,800 L11.5,727.997 L11,728 Z" id="Combined-Shape-Copy" fill="#1C2F8C" transform="translate(66.250000, 653.500000) scale(-1, 1) translate(-66.250000, -653.500000) "></path>
        </g>
    </g>
</svg>