<svg id="advantages01" xmlns="http://www.w3.org/2000/svg" width="45.934" height="52.153" viewBox="0 0 45.934 52.153">
  <path id="패스_4948" data-name="패스 4948" d="M199.375,3061.508a11.216,11.216,0,0,0-8.432,4.616l-3.441,4.628a1.442,1.442,0,0,0,1.728,2.185c2.46-1.063,5.815-1.79,6.742-1.276Z" transform="translate(-187.216 -3038.691)" fill="#ff6b6b"/>
  <path id="패스_4949" data-name="패스 4949" d="M226.04,3080.713l-8.792,5.956c.633.641.925,2.918.922,7.167a1.442,1.442,0,0,0,2.6.862l3.441-4.628A11.3,11.3,0,0,0,226.04,3080.713Z" transform="translate(-194.152 -3043.127)" fill="#ff6b6b"/>
  <path id="패스_4950" data-name="패스 4950" d="M213.818,3085.012c-3.065,2.285-3.474,2.449-3.927,2.865a1.425,1.425,0,0,1-1.8.059l-11.57-8.6a1.449,1.449,0,0,1-.463-1.745c.269-.556.262-.884,1.567-4.62l3.989-.628,11.57,8.6Z" transform="translate(-189.228 -3041.193)" fill="#7c8388"/>
  <path id="패스_4951" data-name="패스 4951" d="M215.732,3086.32c-3.065,2.285-3.474,2.448-3.927,2.865a1.425,1.425,0,0,1-1.8.059l-5.785-4.3,5.163-6.941,5.715,4.251Z" transform="translate(-191.142 -3042.5)" fill="#575f64"/>
  <path id="패스_4952" data-name="패스 4952" d="M214.326,3076.672l-16.2-12.046q7.588-21.365,21.549-28.4l7.861,5.811,7.683,5.714C233.423,3057.954,226.437,3067.637,214.326,3076.672Z" transform="translate(-189.736 -3032.854)" fill="#faecd8"/>
  <path id="패스_4953" data-name="패스 4953" d="M216.766,3078.417l-8.076-6.006,21.288-28.624,7.683,5.713C235.862,3059.7,228.876,3069.383,216.766,3078.417Z" transform="translate(-192.175 -3034.598)" fill="#f4d7af"/>
  <path id="패스_4954" data-name="패스 4954" d="M228.015,3049.9l-.069-.051a7.209,7.209,0,0,0-8.605,11.569l.07.052a7.21,7.21,0,0,0,8.6-11.57Z" transform="translate(-193.964 -3035.67)" fill="#64e1dc"/>
  <path id="패스_4955" data-name="패스 4955" d="M230.322,3060.382a7.232,7.232,0,0,1-10.018,1.535l8.6-11.57A7.232,7.232,0,0,1,230.322,3060.382Z" transform="translate(-194.859 -3036.113)" fill="#00c8c8"/>
  <path id="패스_4956" data-name="패스 4956" d="M241.693,3046.741a14.837,14.837,0,0,1-9.713-2.982l-.069-.051a14.725,14.725,0,0,1-5.762-8.49,28.217,28.217,0,0,1,2.706-1.222,32.99,32.99,0,0,1,10.731-2.154,1.3,1.3,0,0,1,.981.371,1.2,1.2,0,0,1,.476.713,32.366,32.366,0,0,1,1,10.879C241.962,3044.785,241.856,3045.749,241.693,3046.741Z" transform="translate(-196.209 -3031.84)" fill="#ff6b6b"/>
  <path id="패스_4957" data-name="패스 4957" d="M243.444,3046.852a14.836,14.836,0,0,1-9.713-2.982l8.587-11.547a1.206,1.206,0,0,1,.476.713,32.388,32.388,0,0,1,1,10.88C243.713,3044.9,243.608,3045.86,243.444,3046.852Z" transform="translate(-197.961 -3031.951)" fill="#ea5c5c"/>
  <path id="패스_4958" data-name="패스 4958" d="M211.992,3072.177a1.36,1.36,0,0,0-.534-.828,1.332,1.332,0,0,0-1.108-.394c-5.252.73-6.149,2.759-6.407,3.106-7.452,10.02-6.921,14.332-6.856,14.775a1.491,1.491,0,0,0,.568.927.11.11,0,0,0,.088.029,1.239,1.239,0,0,0,.837.227c.738-.026,4.819-.728,12.3-10.795C212.571,3076.956,212.442,3075.1,211.992,3072.177Z" transform="translate(-189.488 -3040.871)" fill="#ff6b6b"/>
  <path id="패스_4959" data-name="패스 4959" d="M212.2,3072.3c.45,2.922.579,4.78-1.108,7.047-7.486,10.067-11.566,10.769-12.3,10.795a1.239,1.239,0,0,1-.837-.227l13.716-18.443A1.362,1.362,0,0,1,212.2,3072.3Z" transform="translate(-189.695 -3040.992)" fill="#ea5c5c"/>
</svg>
