<svg id="advantages02" xmlns="http://www.w3.org/2000/svg" width="44.795" height="57.292" viewBox="0 0 44.795 57.292">
  <path id="패스_4964" data-name="패스 4964" d="M229.59,3237.973V3208H201.264v29.973H193.03l22.4,27.318,22.4-27.318Z" transform="translate(-193.03 -3208)" fill="#4dceb5"/>
  <g id="그룹_7626" data-name="그룹 7626" transform="translate(12.266 13.281)">
    <path id="패스_4965" data-name="패스 4965" d="M225.116,3224.489a2.217,2.217,0,0,1,0,.868c-.029.144-.055.285-.076.424s-.047.278-.076.423l-.021.087q-.11.435-.207.879t-.206.879h1.454a3.212,3.212,0,0,1,.75.087,1.4,1.4,0,0,1,.663.39.8.8,0,0,1,.228.359,1.47,1.47,0,0,1,.076.467,2.212,2.212,0,0,1-.076.552.92.92,0,0,1-.207.424,1.169,1.169,0,0,1-.434.3,2,2,0,0,1-.522.143,3.98,3.98,0,0,1-.445.031h-2.183c-.044.2-.086.4-.13.587s-.087.37-.131.543q-.26,1.086-.543,2.389t-.586,2.388c-.073.247-.149.492-.228.739a6.6,6.6,0,0,1-.293.739,2.757,2.757,0,0,1-.359.576,1.336,1.336,0,0,1-.467.369,1.039,1.039,0,0,1-.553.087,1.447,1.447,0,0,1-.641-.272,2.16,2.16,0,0,1-.771-1.019q-.25-.652-.511-1.195a4.708,4.708,0,0,1-.26-.674c-.115-.347-.239-.728-.369-1.14s-.257-.81-.38-1.194a8.305,8.305,0,0,0-.315-.858q-.195.478-.391,1.086t-.369,1.195q-.174.586-.315,1.054l-.207.683q-.173.434-.379.956a3.5,3.5,0,0,1-.5.89,1.392,1.392,0,0,1-.706.489,1.2,1.2,0,0,1-.978-.25,1.39,1.39,0,0,1-.608-.738c-.073-.2-.144-.4-.217-.587a3.937,3.937,0,0,1-.174-.586l-.434-1.628-.891-3.5c-.087-.348-.173-.716-.26-1.107h-1.065a6.79,6.79,0,0,1-1.02.01,1.335,1.335,0,0,1-.891-.4,1.277,1.277,0,0,1-.5-.978,1.444,1.444,0,0,1,.207-.727,1.179,1.179,0,0,1,.554-.511,2.288,2.288,0,0,1,.912-.162c.318.007.644,0,.977-.011h.108q-.108-.5-.206-1.118t-.272-1.574a3.467,3.467,0,0,1-.054-.446,1.706,1.706,0,0,1,.032-.423.917.917,0,0,1,.3-.565.838.838,0,0,1,.261-.173,2.093,2.093,0,0,1,.325-.109,1.69,1.69,0,0,1,.543-.086,1.035,1.035,0,0,1,.543.174.815.815,0,0,1,.3.282l.26.456c.029.1.058.191.087.271s.058.163.087.25.05.192.065.272.029.155.044.227q.109.673.25,1.3t.314,1.26h3.127c.088-.275.174-.528.261-.76a2.074,2.074,0,0,1,.293-.553.688.688,0,0,1,.4-.26,1.119,1.119,0,0,1,.608.076,1.086,1.086,0,0,1,.542.575c.145.3.283.6.413.923h2.953q.151-.565.293-1.107t.272-1.087l.108-.369a.822.822,0,0,0,.055-.227,1.459,1.459,0,0,1,.054-.272c.029-.087.058-.17.087-.25s.057-.17.087-.271q.044-.109.1-.228a1.068,1.068,0,0,1,.142-.228.579.579,0,0,1,.152-.173,1.073,1.073,0,0,1,.173-.109,1.094,1.094,0,0,1,.521-.174,1.69,1.69,0,0,1,.543.086,1.475,1.475,0,0,1,.63.282A.94.94,0,0,1,225.116,3224.489Zm-10.64,9.467q.151-.542.38-1.39l.467-1.737h-1.607q.086.412.184.868t.2.879q.1.424.195.782T214.476,3233.956Zm5.863-.413c.044-.144.09-.326.141-.543s.1-.449.152-.695.105-.5.163-.761.115-.5.173-.716h-1.455q.239.847.445,1.607A6.489,6.489,0,0,0,220.339,3233.544Z" transform="translate(-207.396 -3223.555)" fill="#fff"/>
  </g>
</svg>
