<svg id="advantages06" xmlns="http://www.w3.org/2000/svg" width="41.9" height="40.457" viewBox="0 0 41.9 40.457">
  <path id="패스_4979" data-name="패스 4979" d="M866.061,3409.586c-9.975,0-18.061,7.25-18.061,16.193a14.95,14.95,0,0,0,2.987,8.917c-.248,2.955-.961,7.117-2.987,9.144,0,0,6.192-.869,10.386-3.4a19.741,19.741,0,0,0,7.674,1.534c9.975,0,18.061-7.25,18.061-16.193S876.036,3409.586,866.061,3409.586Z" transform="translate(-848 -3403.383)" fill="#feca57"/>
  <path id="패스_4980" data-name="패스 4980" d="M892.791,3417.193c0-8.943-8.086-16.193-18.061-16.193-7.2,0-13.419,3.781-16.319,9.25a19.41,19.41,0,0,1,10.54-3.047c9.975,0,18.061,7.25,18.061,16.193a14.99,14.99,0,0,1-3.205,9.206,35.249,35.249,0,0,0,8.985,2.652c-2.026-2.027-2.739-6.188-2.987-9.144A14.949,14.949,0,0,0,892.791,3417.193Z" transform="translate(-850.891 -3401)" fill="#4396f1"/>
  <circle id="타원_505" data-name="타원 505" cx="2" cy="2" r="2" transform="translate(7 20.457)" fill="#fff"/>
  <circle id="타원_506" data-name="타원 506" cx="2" cy="2" r="2" transform="translate(16 20.457)" fill="#fff"/>
  <ellipse id="타원_507" data-name="타원 507" cx="2.5" cy="2" rx="2.5" ry="2" transform="translate(25 20.457)" fill="#fff"/>
</svg>
