<svg id="advantages04" xmlns="http://www.w3.org/2000/svg" width="41.241" height="50.755" viewBox="0 0 41.241 50.755">
  <path id="패스_4960" data-name="패스 4960" d="M886.5,3038.357c.04,0-20.1-7.732-20.62-7.93-.4.158-20.659,7.93-20.619,7.93v14.592c0,10.112,2.895,23.316,20.619,28.233,17.685-4.917,20.58-18.359,20.58-28.233C886.5,3047.954,886.5,3038.357,886.5,3038.357Z" transform="translate(-845.258 -3030.427)" fill="#e2e2e2"/>
  <path id="패스_4961" data-name="패스 4961" d="M845.26,3052.949c0,10.112,2.895,23.316,20.62,28.233v-50.755c-.753.277-20.62,7.93-20.62,7.93Z" transform="translate(-845.26 -3030.427)" fill="#fff" opacity="0.5"/>
  <path id="패스_4962" data-name="패스 4962" d="M883.875,3042.488c.039,0-16.218-6.542-16.654-6.7-.357.118-16.694,6.423-16.655,6.383v12.253c0,8.486,1.666,20.064,16.655,24.188,14.948-4.124,16.654-15.9,16.654-24.188C883.914,3050.22,883.914,3042.488,883.875,3042.488Z" transform="translate(-846.639 -3031.822)" fill="#54a0ff"/>
  <path id="패스_4963" data-name="패스 4963" d="M867.274,3035.787c-.357.118-16.694,6.423-16.654,6.383v12.253c0,8.486,1.665,20.064,16.654,24.188Z" transform="translate(-846.653 -3031.822)" fill="#fff" opacity="0.3"/>
</svg>
