<svg id="advantages05" xmlns="http://www.w3.org/2000/svg" width="46.016" height="44.483" viewBox="0 0 46.016 44.483">
  <path id="패스_4966" data-name="패스 4966" d="M888.484,3221.4H842.468v-6.177a1.493,1.493,0,0,1,1.492-1.493h43.032a1.493,1.493,0,0,1,1.492,1.493v6.177Z" transform="translate(-842.468 -3213.734)" fill="#3a556a"/>
  <path id="패스_4967" data-name="패스 4967" d="M886.992,3261.683H843.961a1.492,1.492,0,0,1-1.492-1.492V3224.87h46.016v35.321A1.492,1.492,0,0,1,886.992,3261.683Z" transform="translate(-842.468 -3217.2)" fill="#e1e6e9"/>
  <circle id="타원_500" data-name="타원 500" cx="1.917" cy="1.917" r="1.917" transform="translate(3.068 1.918)" fill="#fcd462"/>
  <circle id="타원_501" data-name="타원 501" cx="1.917" cy="1.917" r="1.917" transform="translate(9.204 1.918)" fill="#27a2db"/>
  <circle id="타원_502" data-name="타원 502" cx="1.917" cy="1.917" r="1.917" transform="translate(15.34 1.918)" fill="#44c4a1"/>
  <g id="그룹_7628" data-name="그룹 7628" transform="translate(23.099 21.671)">
    <path id="패스_4968" data-name="패스 4968" d="M893.727,3256.789l1.985-.488v-2.5l-1.985-.488a8,8,0,0,0-1.077-2.594l1.06-1.751-1.768-1.767-1.751,1.059a7.988,7.988,0,0,0-2.593-1.076l-.488-1.985h-2.5l-.488,1.985a7.994,7.994,0,0,0-2.593,1.077l-1.751-1.06-1.768,1.768,1.06,1.751a8,8,0,0,0-1.077,2.593l-1.984.488v2.5l1.984.488a8.011,8.011,0,0,0,1.077,2.594l-1.059,1.751,1.767,1.767,1.751-1.059a8.01,8.01,0,0,0,2.593,1.077l.488,1.984h2.5l.488-1.984a8.014,8.014,0,0,0,2.594-1.077l1.751,1.059,1.767-1.768-1.059-1.75A8.007,8.007,0,0,0,893.727,3256.789Z" transform="translate(-876.007 -3245.199)" fill="#27a2db"/>
    <circle id="타원_503" data-name="타원 503" cx="6.27" cy="6.27" r="6.27" transform="translate(3.583 3.582)" fill="#e1e6e9"/>
    <circle id="타원_504" data-name="타원 504" cx="3.582" cy="3.582" r="3.582" transform="translate(6.27 6.27)" fill="#1c75a1"/>
  </g>
  <g id="그룹_7629" data-name="그룹 7629" transform="translate(6.084 13.958)">
    <path id="패스_4969" data-name="패스 4969" d="M853.5,3240.05l-.784,1.782H851.3l3.451-7.832h1.413l3.451,7.832H858.2l-.784-1.782Zm3.384-1.221-1.423-3.227-1.424,3.227Z" transform="translate(-851.3 -3234)" fill="#3a556a"/>
    <path id="패스_4970" data-name="패스 4970" d="M870.24,3234.683a2.591,2.591,0,0,1,.818,2.106,2.5,2.5,0,0,1-.835,2.084,4.092,4.092,0,0,1-2.561.661h-1.389v2.3h-1.322V3234h2.689A4.033,4.033,0,0,1,870.24,3234.683Zm-.936,3.233a1.728,1.728,0,0,0,.4-1.232,1.278,1.278,0,0,0-.5-1.149,2.9,2.9,0,0,0-1.58-.336h-1.344v3.137h1.535A2.044,2.044,0,0,0,869.3,3237.916Z" transform="translate(-855.55 -3234)" fill="#3a556a"/>
    <path id="패스_4971" data-name="패스 4971" d="M876.08,3234H877.4v7.832H876.08Z" transform="translate(-859.014 -3234)" fill="#3a556a"/>
  </g>
  <path id="패스_4972" data-name="패스 4972" d="M894.117,3220.12H876.44a1.493,1.493,0,0,1-1.493-1.493h0a1.493,1.493,0,0,1,1.493-1.493h17.677a1.493,1.493,0,0,1,1.492,1.493h0A1.492,1.492,0,0,1,894.117,3220.12Z" transform="translate(-852.577 -3214.792)" fill="#e1e6e9"/>
</svg>
