<svg id="sns-tw" xmlns="http://www.w3.org/2000/svg" width="27" height="27" viewBox="0 0 27 27">
  <g id="그룹_10242" data-name="그룹 10242" transform="translate(0 0.029)">
    <g id="그룹_10238" data-name="그룹 10238">
      <rect id="사각형_4305" data-name="사각형 4305" width="27" height="27" transform="translate(0 -0.029)" fill="#1c9cea"/>
    </g>
  </g>
  <g id="그룹_10173" data-name="그룹 10173" transform="translate(6.746 7.828)">
    <path id="패스_7982" data-name="패스 7982" d="M802.958,39.764a3.007,3.007,0,0,1-2.672-1.925l1.155-.056.032-.092A2.97,2.97,0,0,1,799.24,34.9a2.906,2.906,0,0,0,1.25.315c-.157-.172-.288-.323-.427-.468a2.577,2.577,0,0,1-.741-2.226,6.147,6.147,0,0,1,.168-.8c.061-.222.226-.257.372-.089a8.341,8.341,0,0,0,3.43,2.321,8.831,8.831,0,0,0,2,.428c.283.036.29,0,.262-.29a2.918,2.918,0,0,1,.962-2.535,2.862,2.862,0,0,1,3.784.037.4.4,0,0,0,.468.11c.408-.165.82-.316,1.232-.471.067-.025.137-.042.205-.063l.055.061a8.157,8.157,0,0,1-.519.775,9.184,9.184,0,0,1-.713.689l1.386-.339.053.067a4.571,4.571,0,0,1-.346.448,6.912,6.912,0,0,1-.684.625.444.444,0,0,0-.19.415,7.543,7.543,0,0,1-.518,3,8.151,8.151,0,0,1-1.584,2.66,7.759,7.759,0,0,1-2.415,1.842,8.571,8.571,0,0,1-2.718.765,7.775,7.775,0,0,1-3.109-.239,16.579,16.579,0,0,1-1.816-.755.359.359,0,0,1-.1-.082c.685-.106,1.383-.168,2.056-.332A4.925,4.925,0,0,0,802.958,39.764Z" transform="translate(-798.988 -30.861)" fill="#fff" fill-rule="evenodd"/>
  </g>
</svg>
