<svg id="sns-insta" xmlns="http://www.w3.org/2000/svg" xmlns:xlink="http://www.w3.org/1999/xlink" width="27" height="27" viewBox="0 0 27 27">
  <defs>
    <linearGradient id="linear-gradient" x1="0.076" y1="1" x2="0.911" gradientUnits="objectBoundingBox">
      <stop offset="0" stop-color="#ffab4b"/>
      <stop offset="0.238" stop-color="#ff5a3d"/>
      <stop offset="0.464" stop-color="#e4456c"/>
      <stop offset="0.724" stop-color="#d53d86"/>
      <stop offset="1" stop-color="#a22fc1"/>
    </linearGradient>
  </defs>
  <rect id="사각형_4305" data-name="사각형 4305" width="27" height="27" fill="url(#linear-gradient)"/>
  <g id="그룹_10236" data-name="그룹 10236" transform="translate(5.455 5.394)">
    <path id="패스_7976" data-name="패스 7976" d="M1021.946,89.552c-.023,1.116-.037,2.233-.071,3.35a4.956,4.956,0,0,1-.621,2.379,3.975,3.975,0,0,1-3.027,2.017,19.745,19.745,0,0,1-2.566.146c-1.672.01-3.344-.01-5.015-.046a4.69,4.69,0,0,1-2.787-.889,4.175,4.175,0,0,1-1.654-3.046,21.262,21.262,0,0,1-.1-2.171c0-1.738,0-3.478.054-5.214a4.328,4.328,0,0,1,1.662-3.482,4.5,4.5,0,0,1,2.755-.91c2.293-.026,4.586-.038,6.878,0a4.293,4.293,0,0,1,3.489,1.648,4.752,4.752,0,0,1,.927,2.841C1021.912,87.3,1021.923,88.427,1021.946,89.552Zm-7.931,6.491V96.02c.659,0,1.317.017,1.975,0a17.1,17.1,0,0,0,2.033-.137,2.57,2.57,0,0,0,2.227-1.9,4.69,4.69,0,0,0,.19-1.2q.056-2.107.052-4.216c0-.924-.021-1.85-.1-2.77a2.676,2.676,0,0,0-2.1-2.532,5.4,5.4,0,0,0-1.205-.154c-1.709-.029-3.418-.046-5.126-.039A14.359,14.359,0,0,0,1010,83.2a2.633,2.633,0,0,0-2.291,2.139,4.836,4.836,0,0,0-.128.964c-.029,1.405-.052,2.811-.049,4.216,0,.917.023,1.835.1,2.748a2.713,2.713,0,0,0,1.317,2.243,3.66,3.66,0,0,0,1.807.462C1011.841,96,1012.928,96.02,1014.015,96.043Z" transform="translate(-1006.109 -81.662)" fill="#fff" fill-rule="evenodd"/>
    <path id="패스_7977" data-name="패스 7977" d="M1021.485,92.937a4.069,4.069,0,1,1-4.025-4.083A4.064,4.064,0,0,1,1021.485,92.937Zm-1.437-.024a2.632,2.632,0,1,0-2.635,2.641A2.631,2.631,0,0,0,1020.048,92.912Z" transform="translate(-1009.512 -85.043)" fill="#fff" fill-rule="evenodd"/>
    <path id="패스_7978" data-name="패스 7978" d="M1028.171,88.665a.951.951,0,1,1,.937-.95A.945.945,0,0,1,1028.171,88.665Z" transform="translate(-1016.026 -84.061)" fill="#fff" fill-rule="evenodd"/>
  </g>
</svg>
