<svg id="sns-fb" xmlns="http://www.w3.org/2000/svg" width="27" height="27" viewBox="0 0 27 27">
  <g id="그룹_10239" data-name="그룹 10239" transform="translate(0.162 -0.029)">
    <rect id="사각형_4305" data-name="사각형 4305" width="27" height="27" transform="translate(-0.162 0.029)" fill="#004e9c"/>
  </g>
  <g id="그룹_10172" data-name="그룹 10172" transform="translate(9.805 5.816)">
    <path id="패스_7981" data-name="패스 7981" d="M982.623,99.139V90.847h-1.582V87.915h1.587c0-.5-.012-.946,0-1.392a7.932,7.932,0,0,1,.1-1.363,3.061,3.061,0,0,1,3.166-2.627c.8-.042,1.608-.021,2.41.008.135,0,.374.19.378.3.032.816.018,1.635.018,2.528-.595,0-1.137-.005-1.677,0-.68.009-.92.249-.929.925-.006.456,0,.913,0,1.37a1.612,1.612,0,0,0,.042.22h2.588c-.11,1.021-.212,1.968-.317,2.95h-2.29v8.3Z" transform="translate(-981.041 -82.51)" fill="#fff" fill-rule="evenodd"/>
  </g>
</svg>
