<svg id="sns-tiktok" xmlns="http://www.w3.org/2000/svg" width="27" height="27" viewBox="0 0 27 27">
  <g id="그룹_10243" data-name="그룹 10243" transform="translate(0.162 0.029)">
    <rect id="사각형_4305" data-name="사각형 4305" width="27" height="27" transform="translate(-0.162 -0.029)"/>
  </g>
  <g id="그룹_10244" data-name="그룹 10244" transform="translate(7.49 6.328)">
    <path id="패스_7986" data-name="패스 7986" d="M460.183,14.653c-2.969-2.577-1.049-8.314,3.516-7.592v.531C459.844,7.413,458.147,12.012,460.183,14.653ZM468.51,4.7a3.45,3.45,0,0,0,2.008.7v.521A3.048,3.048,0,0,1,468.51,4.7Zm-1.238-2.74a3.582,3.582,0,0,0,.056.587h-1.82v9.061a4.417,4.417,0,0,1-.128,1.116,1.945,1.945,0,0,1-3.419.3,1.98,1.98,0,0,0,2.865-.886,4.43,4.43,0,0,0,.128-1.116V1.96Z" transform="translate(-458.76 -1.96)" fill="#00f7ef" fill-rule="evenodd"/>
    <path id="패스_7987" data-name="패스 7987" d="M468.737,3.511v.012a3.353,3.353,0,0,0,3.245,3.433c0,2.822,0,0,0,2.344a5.577,5.577,0,0,1-3.251-1.151l0,4.563a4.283,4.283,0,0,1-3.275,4.5,4.666,4.666,0,0,1-2.058-.072c-5.254-1.572-3.508-9.363,1.767-8.529,0,2.516,0,0,0,2.516a1.981,1.981,0,0,0-2.329,2.79,1.938,1.938,0,0,0,3.454-.229,4.417,4.417,0,0,0,.128-1.116V3.511Z" transform="translate(-459.67 -2.924)" fill="#fff" fill-rule="evenodd"/>
    <path id="패스_7988" data-name="패스 7988" d="M466.037,8.556a4.939,4.939,0,0,1,.554.056c0,2.516,0,0,0,2.516a1.981,1.981,0,0,0-2.329,2.79c.011.023.022.047.034.07a1.507,1.507,0,0,1-.589-.657,1.981,1.981,0,0,1,2.329-2.79C466.038,8.235,466.037,10.154,466.037,8.556Zm6.818-1.667a4.528,4.528,0,0,0,.555.066c0,2.822,0,0,0,2.344a5.578,5.578,0,0,1-3.251-1.151l0,4.563a4.283,4.283,0,0,1-3.275,4.5,4.666,4.666,0,0,1-2.058-.072,4.443,4.443,0,0,1-2.3-1.524,4.456,4.456,0,0,0,3.807,1.009,4.284,4.284,0,0,0,3.276-4.5l0-4.564a5.57,5.57,0,0,0,3.251,1.15C472.858,6.536,472.856,8.814,472.856,6.889Zm-2.691-3.378v.012a3.994,3.994,0,0,0,.683,2.142,3.486,3.486,0,0,1-1.182-2.154Z" transform="translate(-461.098 -2.924)" fill="#ff004f" fill-rule="evenodd"/>
  </g>
</svg>
