<svg id="sns-youtube" xmlns="http://www.w3.org/2000/svg" width="27" height="27" viewBox="0 0 27 27">
  <g id="그룹_10241" data-name="그룹 10241" transform="translate(0 -0.029)">
    <g id="그룹_10238" data-name="그룹 10238">
      <rect id="사각형_4305" data-name="사각형 4305" width="27" height="27" transform="translate(0 0.029)" fill="#d82431"/>
    </g>
    <g id="그룹_10171" data-name="그룹 10171" transform="translate(5.396 8.091)">
      <path id="패스_7979" data-name="패스 7979" d="M942.107,102.121c-1.721-.067-3.437-.129-5.153-.2a7.585,7.585,0,0,1-.971-.119,1.967,1.967,0,0,1-1.652-1.525,15.627,15.627,0,0,1-.3-3.185,18.62,18.62,0,0,1,.25-3.719,2.037,2.037,0,0,1,2.026-1.787,63.328,63.328,0,0,1,7.484-.21c1.133.019,2.266.084,3.4.136a7.479,7.479,0,0,1,.89.095,1.99,1.99,0,0,1,1.856,1.747,18.734,18.734,0,0,1,.233,4.445c-.047.764-.116,1.529-.238,2.284a1.94,1.94,0,0,1-1.666,1.714,7.492,7.492,0,0,1-.992.124C945.554,101.993,943.83,102.055,942.107,102.121Zm-1.636-3.14,4.232-2.266-4.232-2.266Z" transform="translate(-934.031 -91.352)" fill="#fff" fill-rule="evenodd"/>
      <path id="패스_7980" data-name="패스 7980" d="M946.5,101.75V97.723l3.762,2.014Z" transform="translate(-939.806 -94.375)" fill="#d82431" fill-rule="evenodd"/>
    </g>
  </g>
</svg>
